<svg xmlns="http://www.w3.org/2000/svg" viewBox="0 0 480 600">
  <defs>
    <linearGradient id="bg" x1="0" y1="0" x2="1" y2="1">
      <stop offset="0" stop-color="#f4ede5"/><stop offset="1" stop-color="#e3d4c5"/>
    </linearGradient>
    <linearGradient id="nail" x1="0" y1="0" x2="0" y2="1">
      <stop offset="0" stop-color="#f6e8db"/><stop offset="1" stop-color="#ecd2bc"/>
    </linearGradient>
    <clipPath id="c1"><rect x="62" y="252" width="74" height="204" rx="37"/></clipPath>
    <clipPath id="c2"><rect x="150" y="240" width="74" height="204" rx="37"/></clipPath>
    <clipPath id="c3"><rect x="238" y="236" width="74" height="204" rx="37"/></clipPath>
    <clipPath id="c4"><rect x="326" y="248" width="74" height="204" rx="37"/></clipPath>
  </defs>
  <rect width="480" height="600" fill="url(#bg)"/>
  <g transform="rotate(-5 240 360)">
    <g clip-path="url(#c1)">
      <rect x="62" y="252" width="74" height="204" rx="37" fill="url(#nail)"/>
      <path d="M62 336 L136 366" stroke="#d9a441" stroke-width="3" fill="none"/>
    </g>
    <g clip-path="url(#c2)">
      <rect x="150" y="240" width="74" height="204" rx="37" fill="url(#nail)"/>
      <path d="M150 322 L224 352" stroke="#d9a441" stroke-width="3" fill="none"/>
    </g>
    <g clip-path="url(#c3)">
      <rect x="238" y="236" width="74" height="204" rx="37" fill="url(#nail)"/>
      <path d="M238 318 L312 348" stroke="#d9a441" stroke-width="3" fill="none"/>
    </g>
    <g clip-path="url(#c4)">
      <rect x="326" y="248" width="74" height="204" rx="37" fill="url(#nail)"/>
      <path d="M326 330 L400 360" stroke="#d9a441" stroke-width="3" fill="none"/>
    </g>
  </g>
</svg>
